# xmcd CD database file
#
# Track frame offsets:
#	150
#	22241
#	40807
#	69619
#	93030
#	110992
#	137694
#	149391
#	172092
#	194957
#	218802
#	240177
#	263635
#
# Disc length: 3844 seconds
#
# Revision: 0
# Processed by: cddbd v1.5.2PL0 Copyright (c) Steve Scherf et al.
# Submitted via: CDex 1.70beta2
#
DISCID=c60f020d
DTITLE=Balázs Elemér Group - Early Music
DYEAR=2007
DGENRE=Jazz
TTITLE0=Sanctissima virgo (extract)
TTITLE1=Adoramus te Christe
TTITLE2=Reflections on Goldberg 21 (dedicated to my friend Elemér Balázs)
TTITLE3=O elements (extract from "Salve Regina" c minor)
TTITLE4=Eja ergo (extract from "Salve Regina" c minor)
TTITLE5=Salve Regina (extract)
TTITLE6=Fasciculus myrrhae
TTITLE7=Courante Suite (HWV 170, D minor)
TTITLE8=Se d'amer me repentoie
TTITLE9=Ave Maria
TTITLE10=Dame, je weil endurer
TTITLE11=Voli per l'aria (extract from the cantata "Tra le fiamme")
TTITLE12=	Deposuit potentes (extract from "Magnificat")
EXTD=YEAR: 2007
EXTT0=
EXTT1=
EXTT2=
EXTT3=
EXTT4=
EXTT5=
EXTT6=
EXTT7=
EXTT8=
EXTT9=
EXTT10=
EXTT11=
EXTT12=
PLAYORDER=
